<svg width="6" height="10" viewBox="0 0 6 10" fill="none" xmlns="http://www.w3.org/2000/svg">
<path d="M2.34925 4.99999L5.59425 1.75499C5.76498 1.58324 5.86081 1.35091 5.86081 1.10874C5.86081 0.866573 5.76498 0.634243 5.59425 0.462494C5.50903 0.376576 5.40765 0.308381 5.29594 0.261843C5.18424 0.215305 5.06443 0.191345 4.94341 0.191345C4.8224 0.191345 4.70259 0.215305 4.59089 0.261843C4.47918 0.308381 4.3778 0.376576 4.29258 0.462494L0.405914 4.34916C0.319996 4.43438 0.251802 4.53576 0.205264 4.64746C0.158726 4.75917 0.134766 4.87898 0.134766 4.99999C0.134766 5.121 0.158726 5.24082 0.205264 5.35252C0.251802 5.46423 0.319996 5.56561 0.405914 5.65083L4.29258 9.58333C4.37823 9.66828 4.47982 9.7355 4.5915 9.78112C4.70318 9.82673 4.82277 9.84986 4.94341 9.84916C5.06405 9.84986 5.18364 9.82673 5.29533 9.78112C5.40701 9.7355 5.50859 9.66828 5.59425 9.58333C5.76498 9.41158 5.86081 9.17925 5.86081 8.93708C5.86081 8.69491 5.76498 8.46258 5.59425 8.29083L2.34925 4.99999Z" fill="#687487"/>
</svg>
