<svg width="22" height="12" viewBox="0 0 22 12" fill="none" xmlns="http://www.w3.org/2000/svg">
<path d="M21.7467 5.58829C21.6952 5.45531 21.6178 5.33382 21.5192 5.23079L17.1859 0.897457C17.0849 0.796448 16.965 0.716324 16.833 0.661659C16.701 0.606994 16.5596 0.578857 16.4167 0.578857C16.1282 0.578857 15.8515 0.693461 15.6476 0.897457C15.4436 1.10145 15.329 1.37813 15.329 1.66662C15.329 1.95512 15.4436 2.23179 15.6476 2.43579L18.1392 4.91662H3.86088L6.35255 2.43579C6.45356 2.33478 6.53368 2.21487 6.58835 2.08289C6.64301 1.95092 6.67115 1.80947 6.67115 1.66662C6.67115 1.52378 6.64301 1.38233 6.58835 1.25035C6.53368 1.11838 6.45356 0.998465 6.35255 0.897457C6.25154 0.796448 6.13163 0.716324 5.99965 0.661659C5.86768 0.606994 5.72623 0.578857 5.58338 0.578857C5.44054 0.578857 5.29909 0.606994 5.16711 0.661659C5.03514 0.716324 4.91523 0.796448 4.81422 0.897457L0.480884 5.23079C0.382256 5.33382 0.304944 5.45531 0.253384 5.58829C0.145031 5.85204 0.145031 6.14787 0.253384 6.41162C0.304944 6.5446 0.382256 6.66609 0.480884 6.76912L4.81422 11.1025C4.91493 11.204 5.03475 11.2846 5.16676 11.3396C5.29877 11.3946 5.44037 11.4229 5.58338 11.4229C5.7264 11.4229 5.86799 11.3946 6.00001 11.3396C6.13202 11.2846 6.25184 11.204 6.35255 11.1025C6.45409 11.0017 6.53468 10.8819 6.58968 10.7499C6.64468 10.6179 6.673 10.4763 6.673 10.3333C6.673 10.1903 6.64468 10.0487 6.58968 9.91667C6.53468 9.78465 6.45409 9.66483 6.35255 9.56412L3.86088 7.08329H18.1392L15.6476 9.56412C15.546 9.66483 15.4654 9.78465 15.4104 9.91667C15.3554 10.0487 15.3271 10.1903 15.3271 10.3333C15.3271 10.4763 15.3554 10.6179 15.4104 10.7499C15.4654 10.8819 15.546 11.0017 15.6476 11.1025C15.7483 11.204 15.8681 11.2846 16.0001 11.3396C16.1321 11.3946 16.2737 11.4229 16.4167 11.4229C16.5597 11.4229 16.7013 11.3946 16.8333 11.3396C16.9654 11.2846 17.0852 11.204 17.1859 11.1025L21.5192 6.76912C21.6178 6.66609 21.6952 6.5446 21.7467 6.41162C21.8551 6.14787 21.8551 5.85204 21.7467 5.58829Z" fill="#B6C4DB"/>
</svg>
