<svg width="22" height="14" viewBox="0 0 22 14" fill="none" xmlns="http://www.w3.org/2000/svg">
<path d="M4.81429 4.51917C4.915 4.62071 5.03481 4.7013 5.16683 4.7563C5.29884 4.8113 5.44044 4.83961 5.58345 4.83961C5.72647 4.83961 5.86806 4.8113 6.00008 4.7563C6.13209 4.7013 6.25191 4.62071 6.35262 4.51917C6.45416 4.41846 6.53475 4.29864 6.58975 4.16662C6.64475 4.03461 6.67307 3.89301 6.67307 3.75C6.67307 3.60699 6.64475 3.46539 6.58975 3.33337C6.53475 3.20136 6.45416 3.08154 6.35262 2.98083L4.18595 0.814167C4.08292 0.715539 3.96143 0.638227 3.82845 0.586667C3.5647 0.478314 3.26887 0.478314 3.00512 0.586667C2.87214 0.638227 2.75065 0.715539 2.64762 0.814167L0.480953 2.98083C0.276957 3.18483 0.162354 3.46151 0.162354 3.75C0.162354 4.03849 0.276957 4.31517 0.480953 4.51917C0.684948 4.72316 0.961626 4.83777 1.25012 4.83777C1.53861 4.83777 1.81529 4.72316 2.01929 4.51917L2.33345 4.19417V9.80583L2.01929 9.48083C1.81529 9.27684 1.53861 9.16223 1.25012 9.16223C0.961626 9.16223 0.684948 9.27684 0.480953 9.48083C0.276957 9.68483 0.162354 9.96151 0.162354 10.25C0.162354 10.5385 0.276957 10.8152 0.480953 11.0192L2.64762 13.1858C2.75065 13.2845 2.87214 13.3618 3.00512 13.4133C3.1348 13.4706 3.27501 13.5003 3.41679 13.5003C3.55856 13.5003 3.69878 13.4706 3.82845 13.4133C3.96143 13.3618 4.08292 13.2845 4.18595 13.1858L6.35262 11.0192C6.45363 10.9182 6.53375 10.7982 6.58842 10.6663C6.64308 10.5343 6.67122 10.3928 6.67122 10.25C6.67122 10.1072 6.64308 9.9657 6.58842 9.83373C6.53375 9.70175 6.45363 9.58184 6.35262 9.48083C6.25161 9.37982 6.1317 9.2997 5.99972 9.24503C5.86775 9.19037 5.7263 9.16223 5.58345 9.16223C5.44061 9.16223 5.29916 9.19037 5.16718 9.24503C5.03521 9.2997 4.91529 9.37982 4.81429 9.48083L4.50012 9.80583V4.19417L4.81429 4.51917ZM9.91679 2.66667H20.7501C21.0374 2.66667 21.313 2.55253 21.5162 2.34937C21.7193 2.1462 21.8335 1.87065 21.8335 1.58333C21.8335 1.29602 21.7193 1.02047 21.5162 0.817301C21.313 0.614137 21.0374 0.5 20.7501 0.5H9.91679C9.62947 0.5 9.35392 0.614137 9.15075 0.817301C8.94759 1.02047 8.83345 1.29602 8.83345 1.58333C8.83345 1.87065 8.94759 2.1462 9.15075 2.34937C9.35392 2.55253 9.62947 2.66667 9.91679 2.66667V2.66667ZM20.7501 5.91667H9.91679C9.62947 5.91667 9.35392 6.0308 9.15075 6.23397C8.94759 6.43713 8.83345 6.71268 8.83345 7C8.83345 7.28732 8.94759 7.56287 9.15075 7.76603C9.35392 7.9692 9.62947 8.08333 9.91679 8.08333H20.7501C21.0374 8.08333 21.313 7.9692 21.5162 7.76603C21.7193 7.56287 21.8335 7.28732 21.8335 7C21.8335 6.71268 21.7193 6.43713 21.5162 6.23397C21.313 6.0308 21.0374 5.91667 20.7501 5.91667ZM20.7501 11.3333H9.91679C9.62947 11.3333 9.35392 11.4475 9.15075 11.6506C8.94759 11.8538 8.83345 12.1293 8.83345 12.4167C8.83345 12.704 8.94759 12.9795 9.15075 13.1827C9.35392 13.3859 9.62947 13.5 9.91679 13.5H20.7501C21.0374 13.5 21.313 13.3859 21.5162 13.1827C21.7193 12.9795 21.8335 12.704 21.8335 12.4167C21.8335 12.1293 21.7193 11.8538 21.5162 11.6506C21.313 11.4475 21.0374 11.3333 20.7501 11.3333Z" fill="#687487"/>
</svg>
