<svg width="22" height="22" viewBox="0 0 22 22" fill="none" xmlns="http://www.w3.org/2000/svg">
<path d="M19.5583 11.715C19.3846 11.5173 19.2888 11.2631 19.2888 11C19.2888 10.7368 19.3846 10.4827 19.5583 10.285L20.945 8.72497C21.0978 8.55453 21.1927 8.34006 21.216 8.11235C21.2394 7.88464 21.19 7.65538 21.075 7.45747L18.9083 3.70913C18.7944 3.51145 18.6211 3.35475 18.4129 3.26138C18.2048 3.168 17.9725 3.14272 17.7491 3.18913L15.7125 3.6008C15.4533 3.65435 15.1835 3.61119 14.954 3.47947C14.7245 3.34775 14.5511 3.13657 14.4666 2.8858L13.8058 0.903301C13.7331 0.688128 13.5947 0.501238 13.41 0.369047C13.2253 0.236855 13.0037 0.166048 12.7766 0.166634H8.4433C8.20706 0.154304 7.97328 0.219638 7.77766 0.352658C7.58205 0.485678 7.43535 0.679072 7.35997 0.903301L6.7533 2.8858C6.6688 3.13657 6.49544 3.34775 6.26592 3.47947C6.03641 3.61119 5.76662 3.65435 5.50747 3.6008L3.41664 3.18913C3.2049 3.15921 2.98904 3.19263 2.79626 3.28516C2.60348 3.3777 2.4424 3.52522 2.3333 3.70913L0.166636 7.45747C0.0487257 7.65317 -0.00429038 7.88114 0.0151668 8.10879C0.034624 8.33644 0.125558 8.55211 0.274969 8.72497L1.6508 10.285C1.82448 10.4827 1.92026 10.7368 1.92026 11C1.92026 11.2631 1.82448 11.5173 1.6508 11.715L0.274969 13.275C0.125558 13.4478 0.034624 13.6635 0.0151668 13.8911C-0.00429038 14.1188 0.0487257 14.3468 0.166636 14.5425L2.3333 18.2908C2.44716 18.4885 2.62051 18.6452 2.82866 18.7386C3.0368 18.8319 3.26911 18.8572 3.49247 18.8108L5.52913 18.3991C5.78829 18.3456 6.05808 18.3887 6.28759 18.5205C6.5171 18.6522 6.69047 18.8634 6.77497 19.1141L7.4358 21.0966C7.51118 21.3209 7.65788 21.5143 7.8535 21.6473C8.04912 21.7803 8.2829 21.8456 8.51913 21.8333H12.8525C13.0796 21.8339 13.3011 21.7631 13.4858 21.6309C13.6705 21.4987 13.809 21.3118 13.8816 21.0966L14.5425 19.1141C14.627 18.8634 14.8003 18.6522 15.0298 18.5205C15.2594 18.3887 15.5291 18.3456 15.7883 18.3991L17.825 18.8108C18.0483 18.8572 18.2806 18.8319 18.4888 18.7386C18.6969 18.6452 18.8703 18.4885 18.9841 18.2908L21.1508 14.5425C21.2658 14.3446 21.3152 14.1153 21.2918 13.8876C21.2685 13.6599 21.1736 13.4454 21.0208 13.275L19.5583 11.715ZM17.9441 13.1666L18.8108 14.1416L17.4241 16.5466L16.1458 16.2866C15.3656 16.1271 14.5539 16.2597 13.8649 16.6591C13.176 17.0585 12.6576 17.697 12.4083 18.4533L11.9966 19.6666H9.2233L8.8333 18.4316C8.58398 17.6753 8.06563 17.0368 7.37666 16.6374C6.68768 16.238 5.87604 16.1055 5.0958 16.265L3.81747 16.525L2.40914 14.1308L3.2758 13.1558C3.80875 12.5599 4.1034 11.7886 4.1034 10.9891C4.1034 10.1897 3.80875 9.41833 3.2758 8.82247L2.40914 7.84747L3.7958 5.46413L5.07414 5.72413C5.85437 5.88363 6.66602 5.75109 7.35499 5.35168C8.04396 4.95228 8.56231 4.31381 8.81163 3.55747L9.2233 2.3333H11.9966L12.4083 3.5683C12.6576 4.32464 13.176 4.96311 13.8649 5.36252C14.5539 5.76192 15.3656 5.89446 16.1458 5.73497L17.4241 5.47497L18.8108 7.87997L17.9441 8.85497C17.4172 9.44946 17.1262 10.2164 17.1262 11.0108C17.1262 11.8052 17.4172 12.5721 17.9441 13.1666V13.1666ZM10.61 6.66663C9.75292 6.66663 8.91511 6.92078 8.2025 7.39693C7.48988 7.87309 6.93447 8.54986 6.60649 9.34167C6.27851 10.1335 6.1927 11.0048 6.3599 11.8454C6.5271 12.6859 6.93981 13.4581 7.54584 14.0641C8.15187 14.6701 8.92399 15.0828 9.76458 15.25C10.6052 15.4172 11.4764 15.3314 12.2683 15.0034C13.0601 14.6755 13.7369 14.1201 14.213 13.4074C14.6892 12.6948 14.9433 11.857 14.9433 11C14.9433 9.8507 14.4868 8.7485 13.6741 7.93584C12.8614 7.12318 11.7592 6.66663 10.61 6.66663V6.66663ZM10.61 13.1666C10.1814 13.1666 9.76254 13.0396 9.40623 12.8015C9.04993 12.5634 8.77222 12.225 8.60823 11.8291C8.44424 11.4332 8.40133 10.9976 8.48493 10.5773C8.56853 10.157 8.77489 9.77092 9.0779 9.4679C9.38092 9.16489 9.76698 8.95853 10.1873 8.87493C10.6076 8.79133 11.0432 8.83424 11.4391 8.99823C11.835 9.16222 12.1734 9.43993 12.4115 9.79623C12.6496 10.1525 12.7766 10.5714 12.7766 11C12.7766 11.5746 12.5484 12.1257 12.142 12.532C11.7357 12.9384 11.1846 13.1666 10.61 13.1666Z" fill="#667998"/>
</svg>
