<svg width="20" height="12" viewBox="0 0 20 12" fill="none" xmlns="http://www.w3.org/2000/svg">
<path d="M18.29 10.29C18.3851 10.199 18.4973 10.1276 18.62 10.08C18.8635 9.97998 19.1366 9.97998 19.38 10.08C19.5028 10.1276 19.6149 10.199 19.71 10.29C19.8011 10.3851 19.8724 10.4972 19.92 10.62C19.9966 10.8021 20.0175 11.0028 19.9801 11.1968C19.9428 11.3908 19.8488 11.5694 19.71 11.71C19.6128 11.7983 19.5012 11.8694 19.38 11.92C19.2603 11.9729 19.1309 12.0002 19 12.0002C18.8691 12.0002 18.7397 11.9729 18.62 11.92C18.4988 11.8694 18.3872 11.7983 18.29 11.71C18.1513 11.5694 18.0573 11.3908 18.0199 11.1968C17.9825 11.0028 18.0034 10.8021 18.08 10.62C18.1276 10.4972 18.199 10.3851 18.29 10.29ZM15 2H1.00001C0.734795 2 0.48044 1.89464 0.292904 1.70711C0.105368 1.51957 1.14441e-05 1.26522 1.14441e-05 1C1.14441e-05 0.734784 0.105368 0.48043 0.292904 0.292893C0.48044 0.105357 0.734795 0 1.00001 0H15C15.2652 0 15.5196 0.105357 15.7071 0.292893C15.8947 0.48043 16 0.734784 16 1C16 1.26522 15.8947 1.51957 15.7071 1.70711C15.5196 1.89464 15.2652 2 15 2ZM18.29 5.29C18.4306 5.15124 18.6092 5.05725 18.8032 5.01987C18.9972 4.9825 19.1979 5.00342 19.38 5.08C19.5012 5.13064 19.6128 5.20167 19.71 5.29C19.8011 5.3851 19.8724 5.49725 19.92 5.62C19.9729 5.7397 20.0002 5.86913 20.0002 6C20.0002 6.13087 19.9729 6.2603 19.92 6.38C19.8694 6.50118 19.7983 6.6128 19.71 6.71C19.6128 6.79833 19.5012 6.86936 19.38 6.92C19.2603 6.97291 19.1309 7.00023 19 7.00023C18.8691 7.00023 18.7397 6.97291 18.62 6.92C18.4988 6.86936 18.3872 6.79833 18.29 6.71C18.2017 6.6128 18.1307 6.50118 18.08 6.38C18.0271 6.2603 17.9998 6.13087 17.9998 6C17.9998 5.86913 18.0271 5.7397 18.08 5.62C18.1276 5.49725 18.199 5.3851 18.29 5.29ZM1.00001 5H15C15.2652 5 15.5196 5.10536 15.7071 5.29289C15.8947 5.48043 16 5.73478 16 6C16 6.26522 15.8947 6.51957 15.7071 6.70711C15.5196 6.89464 15.2652 7 15 7H1.00001C0.734795 7 0.48044 6.89464 0.292904 6.70711C0.105368 6.51957 1.14441e-05 6.26522 1.14441e-05 6C1.14441e-05 5.73478 0.105368 5.48043 0.292904 5.29289C0.48044 5.10536 0.734795 5 1.00001 5ZM18.29 0.29C18.3851 0.198959 18.4973 0.127594 18.62 0.0799999C18.8021 0.00342049 19.0028 -0.0175019 19.1968 0.0198722C19.3908 0.0572463 19.5694 0.151242 19.71 0.29C19.7983 0.387201 19.8694 0.498815 19.92 0.62C19.9729 0.7397 20.0002 0.869129 20.0002 1C20.0002 1.13087 19.9729 1.2603 19.92 1.38C19.8694 1.50119 19.7983 1.6128 19.71 1.71C19.6128 1.79833 19.5012 1.86936 19.38 1.92C19.1979 1.99658 18.9972 2.0175 18.8032 1.98013C18.6092 1.94275 18.4306 1.84876 18.29 1.71C18.2017 1.6128 18.1307 1.50119 18.08 1.38C18.0271 1.2603 17.9998 1.13087 17.9998 1C17.9998 0.869129 18.0271 0.7397 18.08 0.62C18.1307 0.498815 18.2017 0.387201 18.29 0.29ZM1.00001 10H15C15.2652 10 15.5196 10.1054 15.7071 10.2929C15.8947 10.4804 16 10.7348 16 11C16 11.2652 15.8947 11.5196 15.7071 11.7071C15.5196 11.8946 15.2652 12 15 12H1.00001C0.734795 12 0.48044 11.8946 0.292904 11.7071C0.105368 11.5196 1.14441e-05 11.2652 1.14441e-05 11C1.14441e-05 10.7348 0.105368 10.4804 0.292904 10.2929C0.48044 10.1054 0.734795 10 1.00001 10Z" fill="#DD3636"/>
</svg>
