<svg width="14" height="12" viewBox="0 0 14 12" fill="none" xmlns="http://www.w3.org/2000/svg">
<path d="M12.44 1.33333C11.7291 0.629803 10.7902 0.203514 9.79267 0.131388C8.79513 0.0592624 7.80466 0.346049 6.99998 0.94C6.15175 0.309092 5.09598 0.0230079 4.04526 0.139359C2.99455 0.255709 2.02694 0.765852 1.3373 1.56706C0.647651 2.36826 0.287195 3.40101 0.328514 4.45734C0.369834 5.51367 0.809859 6.51511 1.55998 7.26L5.55998 11.2933C5.93498 11.6679 6.44331 11.8782 6.97331 11.8782C7.50332 11.8782 8.01165 11.6679 8.38665 11.2933L12.3866 7.26C12.7806 6.8751 13.0946 6.41614 13.3106 5.90949C13.5266 5.40284 13.6404 4.8585 13.6453 4.30775C13.6503 3.757 13.5463 3.21071 13.3395 2.70025C13.1326 2.1898 12.8269 1.72526 12.44 1.33333V1.33333ZM11.5 6.30667L7.49998 10.3067C7.43801 10.3692 7.36427 10.4187 7.28303 10.4526C7.20179 10.4864 7.11466 10.5039 7.02665 10.5039C6.93864 10.5039 6.8515 10.4864 6.77026 10.4526C6.68902 10.4187 6.61529 10.3692 6.55331 10.3067L2.55331 6.30667C2.03049 5.77223 1.73772 5.05431 1.73772 4.30667C1.73772 3.55902 2.03049 2.8411 2.55331 2.30667C3.08608 1.78066 3.80463 1.48571 4.55331 1.48571C5.302 1.48571 6.02054 1.78066 6.55331 2.30667C6.61529 2.36915 6.68902 2.41875 6.77026 2.45259C6.8515 2.48644 6.93864 2.50387 7.02665 2.50387C7.11466 2.50387 7.20179 2.48644 7.28303 2.45259C7.36427 2.41875 7.43801 2.36915 7.49998 2.30667C8.04716 1.87126 8.73545 1.65248 9.43361 1.69206C10.1318 1.73164 10.7909 2.02681 11.2854 2.52127C11.7798 3.01573 12.075 3.67489 12.1146 4.37304C12.1542 5.07119 11.9354 5.75949 11.5 6.30667V6.30667Z" fill="#687487"/>
</svg>
