<svg width="10" height="16" viewBox="0 0 10 16" fill="none" xmlns="http://www.w3.org/2000/svg">
<path d="M8.83512 7.23083L2.70346 1.11C2.60275 1.00846 2.48293 0.927866 2.35091 0.872867C2.2189 0.817867 2.0773 0.789551 1.93429 0.789551C1.79128 0.789551 1.64968 0.817867 1.51766 0.872867C1.38565 0.927866 1.26583 1.00846 1.16512 1.11C0.963351 1.31298 0.850098 1.58755 0.850098 1.87375C0.850098 2.15995 0.963351 2.43452 1.16512 2.6375L6.52762 8.05417L1.16512 13.4167C0.963351 13.6196 0.850098 13.8942 0.850098 14.1804C0.850098 14.4666 0.963351 14.7412 1.16512 14.9442C1.26546 15.0465 1.3851 15.128 1.51714 15.1838C1.64917 15.2395 1.79096 15.2686 1.93429 15.2692C2.07762 15.2686 2.21941 15.2395 2.35144 15.1838C2.48348 15.128 2.60312 15.0465 2.70346 14.9442L8.83512 8.82333C8.94509 8.72189 9.03285 8.59877 9.09287 8.46172C9.1529 8.32468 9.18388 8.17669 9.18388 8.02708C9.18388 7.87747 9.1529 7.72948 9.09287 7.59244C9.03285 7.4554 8.94509 7.33228 8.83512 7.23083V7.23083Z" fill="#667998"/>
</svg>
