<svg width="20" height="23" viewBox="0 0 20 23" fill="none" xmlns="http://www.w3.org/2000/svg">
<path d="M14.4444 13.8H5.55556C5.26087 13.8 4.97826 13.9212 4.76988 14.1368C4.56151 14.3525 4.44444 14.645 4.44444 14.95C4.44444 15.255 4.56151 15.5475 4.76988 15.7632C4.97826 15.9788 5.26087 16.1 5.55556 16.1H14.4444C14.7391 16.1 15.0217 15.9788 15.2301 15.7632C15.4385 15.5475 15.5556 15.255 15.5556 14.95C15.5556 14.645 15.4385 14.3525 15.2301 14.1368C15.0217 13.9212 14.7391 13.8 14.4444 13.8ZM14.4444 9.2H7.77778C7.48309 9.2 7.20048 9.32116 6.9921 9.53683C6.78373 9.75249 6.66667 10.045 6.66667 10.35C6.66667 10.655 6.78373 10.9475 6.9921 11.1632C7.20048 11.3788 7.48309 11.5 7.77778 11.5H14.4444C14.7391 11.5 15.0217 11.3788 15.2301 11.1632C15.4385 10.9475 15.5556 10.655 15.5556 10.35C15.5556 10.045 15.4385 9.75249 15.2301 9.53683C15.0217 9.32116 14.7391 9.2 14.4444 9.2ZM18.8889 2.3H15.5556V1.15C15.5556 0.845001 15.4385 0.552494 15.2301 0.336827C15.0217 0.12116 14.7391 0 14.4444 0C14.1498 0 13.8671 0.12116 13.6588 0.336827C13.4504 0.552494 13.3333 0.845001 13.3333 1.15V2.3H11.1111V1.15C11.1111 0.845001 10.994 0.552494 10.7857 0.336827C10.5773 0.12116 10.2947 0 10 0C9.70532 0 9.4227 0.12116 9.21433 0.336827C9.00595 0.552494 8.88889 0.845001 8.88889 1.15V2.3H6.66667V1.15C6.66667 0.845001 6.5496 0.552494 6.34123 0.336827C6.13286 0.12116 5.85024 0 5.55556 0C5.26087 0 4.97826 0.12116 4.76988 0.336827C4.56151 0.552494 4.44444 0.845001 4.44444 1.15V2.3H1.11111C0.816426 2.3 0.533811 2.42116 0.325437 2.63683C0.117063 2.85249 0 3.145 0 3.45V19.55C0 20.465 0.35119 21.3425 0.976311 21.9895C1.60143 22.6365 2.44928 23 3.33333 23H16.6667C17.5507 23 18.3986 22.6365 19.0237 21.9895C19.6488 21.3425 20 20.465 20 19.55V3.45C20 3.145 19.8829 2.85249 19.6746 2.63683C19.4662 2.42116 19.1836 2.3 18.8889 2.3ZM17.7778 19.55C17.7778 19.855 17.6607 20.1475 17.4523 20.3632C17.244 20.5788 16.9614 20.7 16.6667 20.7H3.33333C3.03865 20.7 2.75603 20.5788 2.54766 20.3632C2.33929 20.1475 2.22222 19.855 2.22222 19.55V4.6H4.44444V5.75C4.44444 6.055 4.56151 6.34751 4.76988 6.56317C4.97826 6.77884 5.26087 6.9 5.55556 6.9C5.85024 6.9 6.13286 6.77884 6.34123 6.56317C6.5496 6.34751 6.66667 6.055 6.66667 5.75V4.6H8.88889V5.75C8.88889 6.055 9.00595 6.34751 9.21433 6.56317C9.4227 6.77884 9.70532 6.9 10 6.9C10.2947 6.9 10.5773 6.77884 10.7857 6.56317C10.994 6.34751 11.1111 6.055 11.1111 5.75V4.6H13.3333V5.75C13.3333 6.055 13.4504 6.34751 13.6588 6.56317C13.8671 6.77884 14.1498 6.9 14.4444 6.9C14.7391 6.9 15.0217 6.77884 15.2301 6.56317C15.4385 6.34751 15.5556 6.055 15.5556 5.75V4.6H17.7778V19.55Z" fill="#929292"/>
</svg>
