<svg width="20" height="20" viewBox="0 0 20 20" fill="none" xmlns="http://www.w3.org/2000/svg">
<path d="M18.384 0.182087C17.697 0.0637652 17.0014 0.00286033 16.3044 4.16899e-06C13.9261 -0.00194554 11.5975 0.680012 9.59605 1.96459C7.58944 0.696878 5.26117 0.0316587 2.88772 0.0479208C2.19067 0.0507769 1.49507 0.111682 0.808132 0.230004C0.583122 0.268796 0.379355 0.386652 0.233528 0.562347C0.0877008 0.738043 0.009396 0.960032 0.0127154 1.18834V12.6883C0.0106629 12.8291 0.0396697 12.9687 0.0976716 13.097C0.155674 13.2253 0.241245 13.3393 0.348298 13.4308C0.455351 13.5223 0.581254 13.5891 0.717048 13.6264C0.852843 13.6637 0.995191 13.6706 1.13397 13.6467C2.50728 13.4089 3.91428 13.4483 5.27211 13.7627C6.62994 14.0771 7.91113 14.66 9.04022 15.4771L9.15522 15.5442H9.26063C9.36691 15.5885 9.48091 15.6113 9.59605 15.6113C9.71119 15.6113 9.82519 15.5885 9.93147 15.5442H10.0369L10.1519 15.4771C11.2731 14.6417 12.5506 14.0399 13.9087 13.7074C15.2668 13.3749 16.6778 13.3184 18.0581 13.5413C18.1969 13.5652 18.3393 13.5583 18.475 13.521C18.6108 13.4837 18.7367 13.4169 18.8438 13.3254C18.9509 13.2339 19.0364 13.1199 19.0944 12.9916C19.1524 12.8633 19.1814 12.7237 19.1794 12.5829V1.08292C19.1694 0.864568 19.0851 0.656185 18.9404 0.492336C18.7957 0.328487 18.5994 0.219018 18.384 0.182087ZM8.63772 12.9183C6.86469 11.9856 4.89113 11.4988 2.88772 11.5C2.57147 11.5 2.25522 11.5 1.92938 11.5V1.91667C2.24856 1.89828 2.56854 1.89828 2.88772 1.91667C4.93221 1.91441 6.93209 2.51437 8.63772 3.64167V12.9183ZM17.2627 11.5383C16.9369 11.5383 16.6206 11.5383 16.3044 11.5383C14.301 11.5371 12.3274 12.0239 10.5544 12.9567V3.64167C12.26 2.51437 14.2599 1.91441 16.3044 1.91667C16.6236 1.89828 16.9435 1.89828 17.2627 1.91667V11.5383ZM18.384 15.5154C17.697 15.3971 17.0014 15.3362 16.3044 15.3333C13.9261 15.3314 11.5975 16.0133 9.59605 17.2979C7.59458 16.0133 5.26595 15.3314 2.88772 15.3333C2.19067 15.3362 1.49507 15.3971 0.808132 15.5154C0.683383 15.5352 0.563779 15.5795 0.456196 15.6457C0.348613 15.7118 0.255175 15.7986 0.181254 15.9011C0.107334 16.0035 0.0543889 16.1195 0.0254648 16.2425C-0.00345926 16.3654 -0.00779211 16.4929 0.0127154 16.6175C0.0614166 16.8664 0.206769 17.0858 0.416931 17.2277C0.627094 17.3696 0.884932 17.4224 1.13397 17.3746C2.50728 17.1368 3.91428 17.1763 5.27211 17.4906C6.62994 17.805 7.91113 18.3879 9.04022 19.205C9.20252 19.3206 9.39681 19.3827 9.59605 19.3827C9.79529 19.3827 9.98958 19.3206 10.1519 19.205C11.281 18.3879 12.5622 17.805 13.92 17.4906C15.2778 17.1763 16.6848 17.1368 18.0581 17.3746C18.3072 17.4224 18.565 17.3696 18.7752 17.2277C18.9853 17.0858 19.1307 16.8664 19.1794 16.6175C19.1999 16.4929 19.1956 16.3654 19.1666 16.2425C19.1377 16.1195 19.0848 16.0035 19.0108 15.9011C18.9369 15.7986 18.8435 15.7118 18.7359 15.6457C18.6283 15.5795 18.5087 15.5352 18.384 15.5154Z" fill="#DD3636"/>
</svg>
