<svg width="22" height="20" viewBox="0 0 22 20" fill="none" xmlns="http://www.w3.org/2000/svg">
<path d="M19.9943 2.11873C18.8279 0.92039 17.2819 0.188989 15.6353 0.0566496C13.9888 -0.0756902 12.3504 0.399756 11.016 1.39711C9.61606 0.330042 7.87359 -0.153816 6.13947 0.0429696C4.40535 0.239755 2.80839 1.10257 1.67019 2.45766C0.531986 3.81275 -0.0629177 5.55945 0.00527629 7.34604C0.0734703 9.13262 0.799697 10.8264 2.03771 12.0862L8.87045 19.0995C9.44261 19.6766 10.2132 20 11.016 20C11.8188 20 12.5894 19.6766 13.1615 19.0995L19.9943 12.0862C21.2789 10.7617 22 8.96999 22 7.10247C22 5.23495 21.2789 3.4433 19.9943 2.11873ZM18.4429 10.5302L11.6101 17.5322C11.5324 17.6127 11.4399 17.6766 11.3379 17.7201C11.2359 17.7637 11.1265 17.7862 11.016 17.7862C10.9055 17.7862 10.7961 17.7637 10.6941 17.7201C10.5921 17.6766 10.4996 17.6127 10.4218 17.5322L3.58911 10.4964C2.72622 9.59248 2.24304 8.37825 2.24304 7.11375C2.24304 5.84925 2.72622 4.63502 3.58911 3.73112C4.4684 2.84148 5.6543 2.34263 6.88994 2.34263C8.12559 2.34263 9.31149 2.84148 10.1908 3.73112C10.2931 3.8368 10.4148 3.92069 10.5488 3.97793C10.6829 4.03517 10.8267 4.06465 10.972 4.06465C11.1172 4.06465 11.261 4.03517 11.3951 3.97793C11.5292 3.92069 11.6509 3.8368 11.7532 3.73112C12.6325 2.84148 13.8184 2.34263 15.054 2.34263C16.2897 2.34263 17.4756 2.84148 18.3549 3.73112C19.2296 4.62318 19.7287 5.83082 19.7451 7.09535C19.7616 8.35989 19.2941 9.58074 18.4429 10.4964V10.5302Z" fill="#888888"/>
</svg>
