<svg width="16" height="16" viewBox="0 0 16 16" fill="none" xmlns="http://www.w3.org/2000/svg">
<path d="M13.44 3.33333C12.7291 2.6298 11.7902 2.20351 10.7927 2.13139C9.79513 2.05926 8.80466 2.34605 7.99998 2.94C7.15175 2.30909 6.09598 2.02301 5.04526 2.13936C3.99455 2.25571 3.02694 2.76585 2.3373 3.56706C1.64765 4.36826 1.2872 5.40101 1.32851 6.45734C1.36983 7.51367 1.80986 8.51511 2.55998 9.26L6.55998 13.2933C6.93498 13.6679 7.44331 13.8782 7.97331 13.8782C8.50332 13.8782 9.01165 13.6679 9.38665 13.2933L13.3866 9.26C13.7806 8.8751 14.0946 8.41614 14.3106 7.90949C14.5266 7.40284 14.6404 6.8585 14.6453 6.30775C14.6503 5.757 14.5463 5.21071 14.3395 4.70025C14.1326 4.1898 13.8269 3.72526 13.44 3.33333ZM12.5 8.30667L8.49998 12.3067C8.43801 12.3692 8.36427 12.4187 8.28303 12.4526C8.20179 12.4864 8.11466 12.5039 8.02665 12.5039C7.93864 12.5039 7.8515 12.4864 7.77026 12.4526C7.68902 12.4187 7.61529 12.3692 7.55331 12.3067L3.55331 8.30667C3.03049 7.77223 2.73772 7.05431 2.73772 6.30667C2.73772 5.55902 3.03049 4.8411 3.55331 4.30667C4.08608 3.78066 4.80463 3.48571 5.55331 3.48571C6.302 3.48571 7.02054 3.78066 7.55331 4.30667C7.61529 4.36915 7.68902 4.41875 7.77026 4.45259C7.8515 4.48644 7.93864 4.50387 8.02665 4.50387C8.11466 4.50387 8.20179 4.48644 8.28303 4.45259C8.36427 4.41875 8.43801 4.36915 8.49998 4.30667C9.04716 3.87126 9.73545 3.65248 10.4336 3.69206C11.1318 3.73164 11.7909 4.02681 12.2854 4.52127C12.7798 5.01573 13.075 5.67489 13.1146 6.37304C13.1542 7.07119 12.9354 7.75949 12.5 8.30667Z" fill="#687487"/>
</svg>
