<svg width="10" height="10" viewBox="0 0 10 10" fill="none" xmlns="http://www.w3.org/2000/svg">
<path d="M5.705 4.99997L8.855 1.85497C8.94915 1.76082 9.00205 1.63312 9.00205 1.49997C9.00205 1.36682 8.94915 1.23912 8.855 1.14497C8.76085 1.05082 8.63315 0.997925 8.5 0.997925C8.36685 0.997925 8.23915 1.05082 8.145 1.14497L5 4.29497L1.855 1.14497C1.76085 1.05082 1.63315 0.997925 1.5 0.997925C1.36685 0.997925 1.23915 1.05082 1.145 1.14497C1.05085 1.23912 0.997954 1.36682 0.997954 1.49997C0.997954 1.63312 1.05085 1.76082 1.145 1.85497L4.295 4.99997L1.145 8.14497C1.09814 8.19145 1.06094 8.24675 1.03555 8.30768C1.01017 8.36861 0.997101 8.43396 0.997101 8.49997C0.997101 8.56598 1.01017 8.63133 1.03555 8.69226C1.06094 8.75319 1.09814 8.80849 1.145 8.85497C1.19148 8.90183 1.24678 8.93903 1.30771 8.96442C1.36864 8.9898 1.43399 9.00287 1.5 9.00287C1.56601 9.00287 1.63136 8.9898 1.69229 8.96442C1.75322 8.93903 1.80852 8.90183 1.855 8.85497L5 5.70497L8.145 8.85497C8.19148 8.90183 8.24678 8.93903 8.30771 8.96442C8.36864 8.9898 8.43399 9.00287 8.5 9.00287C8.56601 9.00287 8.63136 8.9898 8.69229 8.96442C8.75322 8.93903 8.80852 8.90183 8.855 8.85497C8.90186 8.80849 8.93906 8.75319 8.96445 8.69226C8.98983 8.63133 9.0029 8.56598 9.0029 8.49997C9.0029 8.43396 8.98983 8.36861 8.96445 8.30768C8.93906 8.24675 8.90186 8.19145 8.855 8.14497L5.705 4.99997Z" fill="white"/>
</svg>
